<svg xmlns="http://www.w3.org/2000/svg" xmlns:xlink="http://www.w3.org/1999/xlink" width="762" zoomAndPan="magnify" viewBox="0 0 571.5 627.000003" height="836" preserveAspectRatio="xMidYMid meet" version="1.0"><defs><clipPath id="a8d95964fe"><path d="M 0.207031 0 L 570.796875 0 L 570.796875 626 L 0.207031 626 Z M 0.207031 0 " clip-rule="nonzero"/></clipPath><clipPath id="a2be63c5df"><path d="M 350 0 L 549 0 L 549 626 L 350 626 Z M 350 0 " clip-rule="nonzero"/></clipPath><clipPath id="7ec58f0ea2"><path d="M 110.320312 390.945312 L 418.75 -55.214844 L 838.828125 235.183594 L 530.398438 681.34375 Z M 110.320312 390.945312 " clip-rule="nonzero"/></clipPath><clipPath id="e704ff709d"><path d="M 110.320312 390.945312 L 418.75 -55.214844 L 838.828125 235.183594 L 530.398438 681.34375 Z M 110.320312 390.945312 " clip-rule="nonzero"/></clipPath><clipPath id="66cb9d2e2a"><path d="M 410 0 L 570.796875 0 L 570.796875 609 L 410 609 Z M 410 0 " clip-rule="nonzero"/></clipPath><clipPath id="5ab6a56df0"><path d="M 110.320312 390.945312 L 418.75 -55.214844 L 838.828125 235.183594 L 530.398438 681.34375 Z M 110.320312 390.945312 " clip-rule="nonzero"/></clipPath><clipPath id="7b41880a25"><path d="M 110.320312 390.945312 L 418.75 -55.214844 L 838.828125 235.183594 L 530.398438 681.34375 Z M 110.320312 390.945312 " clip-rule="nonzero"/></clipPath><clipPath id="c97e1bf6c4"><path d="M 469 19 L 570.796875 19 L 570.796875 562 L 469 562 Z M 469 19 " clip-rule="nonzero"/></clipPath><clipPath id="604c9a87b0"><path d="M 110.320312 390.945312 L 418.75 -55.214844 L 838.828125 235.183594 L 530.398438 681.34375 Z M 110.320312 390.945312 " clip-rule="nonzero"/></clipPath><clipPath id="71b8f52393"><path d="M 110.320312 390.945312 L 418.75 -55.214844 L 838.828125 235.183594 L 530.398438 681.34375 Z M 110.320312 390.945312 " clip-rule="nonzero"/></clipPath><clipPath id="070ce88e26"><path d="M 529 54 L 570.796875 54 L 570.796875 516 L 529 516 Z M 529 54 " clip-rule="nonzero"/></clipPath><clipPath id="cbd5293d9f"><path d="M 110.320312 390.945312 L 418.75 -55.214844 L 838.828125 235.183594 L 530.398438 681.34375 Z M 110.320312 390.945312 " clip-rule="nonzero"/></clipPath><clipPath id="ab338bfdca"><path d="M 110.320312 390.945312 L 418.75 -55.214844 L 838.828125 235.183594 L 530.398438 681.34375 Z M 110.320312 390.945312 " clip-rule="nonzero"/></clipPath><clipPath id="1c15770723"><path d="M 363 0 L 562 0 L 562 626 L 363 626 Z M 363 0 " clip-rule="nonzero"/></clipPath><clipPath id="2c666dca86"><path d="M 123.246094 390.945312 L 431.671875 -55.214844 L 851.753906 235.183594 L 543.324219 681.34375 Z M 123.246094 390.945312 " clip-rule="nonzero"/></clipPath><clipPath id="df386332a9"><path d="M 123.246094 390.945312 L 431.671875 -55.214844 L 851.753906 235.183594 L 543.324219 681.34375 Z M 123.246094 390.945312 " clip-rule="nonzero"/></clipPath><clipPath id="6cb170bf53"><path d="M 423 0 L 570.796875 0 L 570.796875 609 L 423 609 Z M 423 0 " clip-rule="nonzero"/></clipPath><clipPath id="c4caa7a195"><path d="M 123.246094 390.945312 L 431.671875 -55.214844 L 851.753906 235.183594 L 543.324219 681.34375 Z M 123.246094 390.945312 " clip-rule="nonzero"/></clipPath><clipPath id="0302b58da7"><path d="M 123.246094 390.945312 L 431.671875 -55.214844 L 851.753906 235.183594 L 543.324219 681.34375 Z M 123.246094 390.945312 " clip-rule="nonzero"/></clipPath><clipPath id="bf469420f9"><path d="M 482 19 L 570.796875 19 L 570.796875 562 L 482 562 Z M 482 19 " clip-rule="nonzero"/></clipPath><clipPath id="978701434b"><path d="M 123.246094 390.945312 L 431.671875 -55.214844 L 851.753906 235.183594 L 543.324219 681.34375 Z M 123.246094 390.945312 " clip-rule="nonzero"/></clipPath><clipPath id="f273ec09f6"><path d="M 123.246094 390.945312 L 431.671875 -55.214844 L 851.753906 235.183594 L 543.324219 681.34375 Z M 123.246094 390.945312 " clip-rule="nonzero"/></clipPath><clipPath id="95584763d1"><path d="M 542 54 L 570.796875 54 L 570.796875 516 L 542 516 Z M 542 54 " clip-rule="nonzero"/></clipPath><clipPath id="6eef169579"><path d="M 123.246094 390.945312 L 431.671875 -55.214844 L 851.753906 235.183594 L 543.324219 681.34375 Z M 123.246094 390.945312 " clip-rule="nonzero"/></clipPath><clipPath id="a877208010"><path d="M 123.246094 390.945312 L 431.671875 -55.214844 L 851.753906 235.183594 L 543.324219 681.34375 Z M 123.246094 390.945312 " clip-rule="nonzero"/></clipPath></defs><g clip-path="url(#a8d95964fe)"><path fill="#ffffff" d="M 0.207031 0 L 570.796875 0 L 570.796875 626 L 0.207031 626 Z M 0.207031 0 " fill-opacity="1" fill-rule="nonzero"/><path fill="#eceeff" d="M 0.207031 0 L 570.796875 0 L 570.796875 626 L 0.207031 626 Z M 0.207031 0 " fill-opacity="1" fill-rule="nonzero"/></g><g clip-path="url(#a2be63c5df)"><g clip-path="url(#7ec58f0ea2)"><g clip-path="url(#e704ff709d)"><path fill="#a3935e" d="M 547.855469 655.84375 C 506.117188 647.03125 466.621094 636.707031 442.003906 607.496094 C 420.472656 581.945312 412.816406 542.734375 421.011719 499.914062 C 426.363281 471.945312 437.207031 445.074219 447.699219 419.074219 C 454.054688 403.324219 460.628906 387.023438 465.921875 370.644531 C 477.953125 333.378906 486.746094 280.269531 460.277344 238.804688 C 448.304688 220.039062 430.183594 205.75 412.671875 191.9375 C 392.976562 176.414062 372.605469 160.347656 361.058594 137.90625 C 346.421875 109.496094 347.441406 71.121094 363.785156 35.242188 C 378.566406 2.800781 402.578125 -24.089844 425.804688 -50.101562 L 426.714844 -49.296875 C 403.554688 -23.355469 379.601562 3.472656 364.890625 35.742188 C 348.703125 71.269531 347.671875 109.25 362.136719 137.332031 C 373.582031 159.539062 393.835938 175.511719 413.429688 190.96875 C 431.019531 204.84375 449.21875 219.1875 461.300781 238.132812 C 488.027344 280 479.191406 333.496094 467.082031 371 C 461.777344 387.417969 455.199219 403.726562 448.839844 419.507812 C 438.371094 445.449219 427.550781 472.261719 422.222656 500.113281 C 414.101562 542.570312 421.65625 581.417969 442.953125 606.683594 C 467.320312 635.589844 506.601562 645.855469 548.121094 654.621094 L 547.875 655.8125 Z M 547.855469 655.84375 " fill-opacity="1" fill-rule="nonzero"/></g></g></g><g clip-path="url(#66cb9d2e2a)"><g clip-path="url(#5ab6a56df0)"><g clip-path="url(#7b41880a25)"><path fill="#a3935e" d="M 579.582031 608.898438 C 546.71875 602.308594 509.777344 592.964844 487.28125 565.207031 C 479.769531 555.953125 474.25 544.910156 470.875 532.371094 C 465.894531 513.863281 465.589844 492.382812 469.996094 470.261719 C 474.878906 445.714844 484.519531 422.101562 493.851562 399.28125 L 495.601562 394.996094 C 500.578125 382.78125 505.804688 369.757812 510.085938 356.660156 C 518.714844 330.363281 526.488281 291.90625 514.492188 258.089844 C 512.296875 251.921875 509.488281 246.039062 506.148438 240.605469 C 495.777344 223.792969 479.949219 210.835938 464.640625 198.3125 C 447.773438 184.507812 430.335938 170.242188 420.128906 150.746094 C 416.902344 144.589844 414.433594 137.921875 412.792969 130.90625 C 407.730469 109.304688 410.40625 84.34375 420.351562 60.617188 C 432.570312 31.304688 454.03125 6.113281 473.191406 -15.195312 L 474.09375 -14.378906 C 454.996094 6.859375 433.617188 31.957031 421.472656 61.09375 C 411.632812 84.585938 408.976562 109.277344 413.988281 130.636719 C 415.609375 137.546875 418.042969 144.117188 421.214844 150.179688 C 431.3125 169.453125 448.652344 183.644531 465.414062 197.367188 C 480.796875 209.957031 496.695312 222.976562 507.1875 239.960938 C 510.582031 245.464844 513.421875 251.425781 515.648438 257.675781 C 527.757812 291.820312 519.941406 330.558594 511.261719 357.042969 C 506.949219 370.179688 501.71875 383.230469 496.734375 395.453125 L 494.988281 399.742188 C 485.683594 422.519531 476.074219 446.066406 471.207031 470.503906 C 466.835938 492.445312 467.132812 513.726562 472.0625 532.050781 C 475.394531 544.414062 480.835938 555.3125 488.234375 564.429688 C 510.472656 591.875 547.164062 601.152344 579.820312 607.699219 Z M 579.582031 608.898438 " fill-opacity="1" fill-rule="nonzero"/></g></g></g><g clip-path="url(#c97e1bf6c4)"><g clip-path="url(#604c9a87b0)"><g clip-path="url(#71b8f52393)"><path fill="#a3935e" d="M 611.308594 561.949219 C 584.828125 557.019531 551.933594 548.117188 532.566406 522.90625 C 526.277344 514.753906 521.710938 505.121094 518.996094 494.285156 C 514.996094 478.234375 515 459.671875 519 440.621094 C 523.421875 419.484375 531.859375 399.160156 540.019531 379.488281 L 541.585938 375.726562 C 545.933594 365.234375 550.484375 354.042969 554.285156 342.675781 C 565.160156 310.210938 566.777344 280.785156 558.96875 257.582031 C 557.167969 252.234375 554.835938 247.125 552.050781 242.386719 C 543.273438 227.488281 529.710938 215.847656 516.609375 204.585938 C 502.597656 192.542969 488.097656 180.089844 479.257812 163.566406 C 476.421875 158.257812 474.1875 152.535156 472.636719 146.546875 C 467.816406 128 469.355469 106.488281 476.960938 85.972656 C 486.851562 58.980469 505.488281 36.371094 520.609375 19.6875 L 521.511719 20.5 C 506.453125 37.097656 487.917969 59.582031 478.097656 86.386719 C 470.578125 106.667969 469.042969 127.917969 473.804688 146.226562 C 475.339844 152.132812 477.53125 157.765625 480.324219 162.984375 C 489.054688 179.300781 503.460938 191.675781 517.390625 203.644531 C 530.582031 214.96875 544.210938 226.6875 553.09375 241.761719 C 555.933594 246.566406 558.300781 251.757812 560.121094 257.179688 C 568.019531 280.636719 566.398438 310.324219 555.449219 343.046875 C 551.636719 354.457031 547.0625 365.675781 542.710938 376.175781 L 541.144531 379.9375 C 533.007812 399.554688 524.585938 419.832031 520.191406 440.851562 C 516.234375 459.726562 516.226562 478.105469 520.175781 493.972656 C 522.839844 504.644531 527.335938 514.121094 533.523438 522.144531 C 552.648438 547.039062 585.253906 555.847656 611.527344 560.738281 L 611.308594 561.933594 Z M 611.308594 561.949219 " fill-opacity="1" fill-rule="nonzero"/></g></g></g><g clip-path="url(#070ce88e26)"><g clip-path="url(#cbd5293d9f)"><g clip-path="url(#ab338bfdca)"><path fill="#a3935e" d="M 643.039062 515.003906 C 612.414062 509.890625 590.480469 498.3125 577.832031 480.59375 C 572.757812 473.53125 569.15625 465.308594 567.113281 456.179688 C 564.101562 442.601562 564.40625 426.964844 567.992188 410.957031 C 571.953125 393.25 579.1875 376.183594 586.179688 359.683594 L 587.550781 356.457031 C 591.253906 347.699219 595.15625 338.339844 598.46875 328.6875 C 607.96875 301.082031 609.632812 276.992188 603.421875 257.089844 C 602.011719 252.570312 600.160156 248.226562 597.921875 244.175781 C 590.726562 231.140625 579.40625 220.753906 568.445312 210.703125 C 557.296875 200.476562 545.761719 189.882812 538.332031 176.394531 C 535.882812 171.945312 533.898438 167.167969 532.421875 162.191406 C 527.875 146.78125 528.269531 128.730469 533.511719 111.351562 C 539.347656 92.066406 550.617188 73.492188 567.992188 54.574219 L 568.886719 55.402344 C 551.652344 74.179688 540.460938 92.601562 534.679688 111.699219 C 529.488281 128.847656 529.105469 146.652344 533.582031 161.835938 C 535.027344 166.730469 536.988281 171.417969 539.398438 175.796875 C 546.734375 189.117188 558.191406 199.628906 569.269531 209.792969 C 580.292969 219.902344 591.6875 230.371094 598.976562 243.570312 C 601.253906 247.691406 603.136719 252.105469 604.578125 256.703125 C 610.875 276.859375 609.207031 301.199219 599.613281 329.066406 C 596.285156 338.75 592.375 348.132812 588.660156 356.910156 L 587.28125 360.148438 C 580.308594 376.601562 573.09375 393.613281 569.160156 411.214844 C 565.613281 427.042969 565.308594 442.503906 568.28125 455.902344 C 570.285156 464.875 573.824219 472.933594 578.804688 479.871094 C 591.246094 497.316406 612.925781 508.722656 643.21875 513.78125 L 643.015625 514.992188 Z M 643.039062 515.003906 " fill-opacity="1" fill-rule="nonzero"/></g></g></g><g clip-path="url(#1c15770723)"><g clip-path="url(#2c666dca86)"><g clip-path="url(#df386332a9)"><path fill="#a3935e" d="M 560.777344 655.84375 C 519.039062 647.03125 479.546875 636.707031 454.929688 607.496094 C 433.398438 581.945312 425.742188 542.734375 433.9375 499.914062 C 439.289062 471.945312 450.128906 445.074219 460.625 419.074219 C 466.980469 403.324219 473.550781 387.023438 478.847656 370.644531 C 490.875 333.378906 499.671875 280.269531 473.203125 238.804688 C 461.226562 220.039062 443.109375 205.75 425.59375 191.9375 C 405.902344 176.414062 385.53125 160.347656 373.980469 137.90625 C 359.34375 109.496094 360.363281 71.121094 376.710938 35.242188 C 391.492188 2.800781 415.503906 -24.089844 438.730469 -50.101562 L 439.636719 -49.296875 C 416.476562 -23.355469 392.523438 3.472656 377.816406 35.742188 C 361.625 71.269531 360.597656 109.25 375.058594 137.332031 C 386.503906 159.539062 406.761719 175.511719 426.355469 190.96875 C 443.941406 204.84375 462.140625 219.1875 474.226562 238.132812 C 500.953125 280 492.113281 333.496094 480.007812 371 C 474.703125 387.417969 468.121094 403.726562 461.761719 419.507812 C 451.292969 445.449219 440.476562 472.261719 435.144531 500.113281 C 427.023438 542.570312 434.578125 581.417969 455.875 606.683594 C 480.246094 635.589844 519.527344 645.855469 561.046875 654.621094 L 560.800781 655.8125 Z M 560.777344 655.84375 " fill-opacity="1" fill-rule="nonzero"/></g></g></g><g clip-path="url(#6cb170bf53)"><g clip-path="url(#c4caa7a195)"><g clip-path="url(#0302b58da7)"><path fill="#a3935e" d="M 592.507812 608.898438 C 559.644531 602.308594 522.703125 592.964844 500.207031 565.207031 C 492.695312 555.953125 487.175781 544.910156 483.800781 532.371094 C 478.820312 513.863281 478.515625 492.382812 482.921875 470.261719 C 487.804688 445.714844 497.445312 422.101562 506.777344 399.28125 L 508.523438 394.996094 C 513.503906 382.78125 518.726562 369.757812 523.011719 356.660156 C 531.636719 330.363281 539.410156 291.90625 527.414062 258.089844 C 525.21875 251.921875 522.414062 246.039062 519.074219 240.605469 C 508.699219 223.792969 492.875 210.835938 477.566406 198.3125 C 460.699219 184.507812 443.257812 170.242188 433.050781 150.746094 C 429.828125 144.589844 427.355469 137.921875 425.71875 130.90625 C 420.652344 109.304688 423.332031 84.34375 433.277344 60.617188 C 445.496094 31.304688 466.953125 6.113281 486.117188 -15.195312 L 487.019531 -14.378906 C 467.921875 6.859375 446.542969 31.957031 434.398438 61.09375 C 424.558594 84.585938 421.902344 109.277344 426.910156 130.636719 C 428.53125 137.546875 430.96875 144.117188 434.140625 150.179688 C 444.234375 169.453125 461.574219 183.644531 478.335938 197.367188 C 493.71875 209.957031 509.621094 222.976562 520.113281 239.960938 C 523.507812 245.464844 526.347656 251.425781 528.574219 257.675781 C 540.683594 291.820312 532.863281 330.558594 524.183594 357.042969 C 519.875 370.179688 514.644531 383.230469 509.660156 395.453125 L 507.910156 399.742188 C 498.605469 422.519531 488.996094 446.066406 484.128906 470.503906 C 479.761719 492.445312 480.054688 513.726562 484.984375 532.050781 C 488.320312 544.414062 493.757812 555.3125 501.160156 564.429688 C 523.398438 591.875 560.089844 601.152344 592.742188 607.699219 Z M 592.507812 608.898438 " fill-opacity="1" fill-rule="nonzero"/></g></g></g><g clip-path="url(#bf469420f9)"><g clip-path="url(#978701434b)"><g clip-path="url(#f273ec09f6)"><path fill="#a3935e" d="M 624.234375 561.949219 C 597.75 557.019531 564.859375 548.117188 545.492188 522.90625 C 539.203125 514.753906 534.632812 505.121094 531.921875 494.285156 C 527.921875 478.234375 527.921875 459.671875 531.925781 440.621094 C 536.34375 419.484375 544.78125 399.160156 552.945312 379.488281 L 554.507812 375.726562 C 558.855469 365.234375 563.410156 354.042969 567.210938 342.675781 C 578.082031 310.210938 579.703125 280.785156 571.894531 257.582031 C 570.09375 252.234375 567.757812 247.125 564.976562 242.386719 C 556.195312 227.488281 542.632812 215.847656 529.535156 204.585938 C 515.519531 192.542969 501.019531 180.089844 492.179688 163.566406 C 489.347656 158.257812 487.109375 152.535156 485.5625 146.546875 C 480.742188 128 482.28125 106.488281 489.886719 85.972656 C 499.777344 58.980469 518.414062 36.371094 533.53125 19.6875 L 534.433594 20.5 C 519.378906 37.097656 500.84375 59.582031 491.019531 86.386719 C 483.503906 106.667969 481.96875 127.917969 486.730469 146.226562 C 488.261719 152.132812 490.457031 157.765625 493.25 162.984375 C 501.980469 179.300781 516.386719 191.675781 530.316406 203.644531 C 543.507812 214.96875 557.136719 226.6875 566.019531 241.761719 C 568.859375 246.566406 571.222656 251.757812 573.046875 257.179688 C 580.945312 280.636719 579.320312 310.324219 568.375 343.046875 C 564.5625 354.457031 559.988281 365.675781 555.632812 376.175781 L 554.070312 379.9375 C 545.929688 399.554688 537.511719 419.832031 533.113281 440.851562 C 529.160156 459.726562 529.152344 478.105469 533.097656 493.972656 C 535.765625 504.644531 540.261719 514.121094 546.445312 522.144531 C 565.574219 547.039062 598.175781 555.847656 624.449219 560.738281 L 624.230469 561.933594 Z M 624.234375 561.949219 " fill-opacity="1" fill-rule="nonzero"/></g></g></g><g clip-path="url(#95584763d1)"><g clip-path="url(#6eef169579)"><g clip-path="url(#a877208010)"><path fill="#a3935e" d="M 655.960938 515.003906 C 625.339844 509.890625 603.40625 498.3125 590.753906 480.59375 C 585.683594 473.53125 582.078125 465.308594 580.035156 456.179688 C 577.023438 442.601562 577.332031 426.964844 580.917969 410.957031 C 584.875 393.25 592.113281 376.183594 599.105469 359.683594 L 600.476562 356.457031 C 604.175781 347.699219 608.082031 338.339844 611.390625 328.6875 C 620.890625 301.082031 622.554688 276.992188 616.347656 257.089844 C 614.9375 252.570312 613.082031 248.226562 610.847656 244.175781 C 603.648438 231.140625 592.332031 220.753906 581.371094 210.703125 C 570.21875 200.476562 558.6875 189.882812 551.257812 176.394531 C 548.808594 171.945312 546.824219 167.167969 545.347656 162.191406 C 540.800781 146.78125 541.191406 128.730469 546.4375 111.351562 C 552.269531 92.066406 563.542969 73.492188 580.914062 54.574219 L 581.8125 55.402344 C 564.578125 74.179688 553.382812 92.601562 547.601562 111.699219 C 542.414062 128.847656 542.027344 146.652344 546.507812 161.835938 C 547.953125 166.730469 549.914062 171.417969 552.324219 175.796875 C 559.660156 189.117188 571.117188 199.628906 582.191406 209.792969 C 593.214844 219.902344 604.613281 230.371094 611.902344 243.570312 C 614.175781 247.691406 616.058594 252.105469 617.503906 256.703125 C 623.800781 276.859375 622.128906 301.199219 612.539062 329.066406 C 609.207031 338.75 605.296875 348.132812 601.582031 356.910156 L 600.203125 360.148438 C 593.230469 376.601562 586.019531 393.613281 582.085938 411.214844 C 578.535156 427.042969 578.234375 442.503906 581.203125 455.902344 C 583.210938 464.875 586.746094 472.933594 591.726562 479.871094 C 604.167969 497.316406 625.851562 508.722656 656.140625 513.78125 L 655.941406 514.992188 Z M 655.960938 515.003906 " fill-opacity="1" fill-rule="nonzero"/></g></g></g></svg>