<svg xmlns="http://www.w3.org/2000/svg" xmlns:xlink="http://www.w3.org/1999/xlink" width="1080" zoomAndPan="magnify" viewBox="0 0 810 809.999993" height="1080" preserveAspectRatio="xMidYMid meet" version="1.0"><rect x="-81" width="972" fill="#ffffff" y="-80.999999" height="971.999992" fill-opacity="1"/><rect x="-81" width="972" fill="#ffffff" y="-80.999999" height="971.999992" fill-opacity="1"/><path fill="#7900ff" d="M 451.941406 427.429688 L 257.933594 427.429688 C 249.898438 427.429688 243.378906 420.914062 243.378906 412.878906 L 243.378906 397.160156 C 243.378906 389.125 249.898438 382.605469 257.933594 382.605469 L 451.929688 382.605469 C 459.964844 382.605469 466.480469 389.125 466.480469 397.160156 L 466.480469 412.878906 C 466.480469 420.914062 459.976562 427.429688 451.941406 427.429688 Z M 451.941406 427.429688 " fill-opacity="1" fill-rule="nonzero"/><path fill="#7900ff" d="M 553.535156 387.996094 L 476.742188 343.660156 C 463.636719 336.097656 447.257812 345.558594 447.257812 360.6875 L 447.257812 449.359375 C 447.257812 464.492188 463.636719 473.953125 476.742188 466.386719 L 553.535156 422.050781 C 566.640625 414.476562 566.640625 395.5625 553.535156 387.996094 Z M 553.535156 387.996094 " fill-opacity="1" fill-rule="nonzero"/></svg>